<?xml version="1.0" standalone="no"?>
<svg viewBox="0 0 200 200" xmlns="http://www.w3.org/2000/svg">
  <path fill="#0000C0" d="M42.2,-78.2C52.1,-67.3,55.8,-50.8,63.7,-36.9C71.6,-22.9,83.6,-11.5,86,1.4C88.4,14.2,81.1,28.4,72.4,41C63.7,53.5,53.6,64.3,41.2,73C28.9,81.8,14.5,88.4,0.4,87.6C-13.6,86.8,-27.2,78.7,-37.5,68.9C-47.9,59,-55.1,47.5,-61.2,35.7C-67.4,23.9,-72.6,12,-72.1,0.3C-71.7,-11.4,-65.6,-22.9,-58.8,-33.7C-52.1,-44.4,-44.7,-54.5,-34.8,-65.4C-24.8,-76.3,-12.4,-88,1.8,-91.2C16.1,-94.4,32.2,-89,42.2,-78.2Z" transform="translate(100 100)" />
</svg>
