<?xml version="1.0" standalone="no"?>
<svg viewBox="0 0 200 200" xmlns="http://www.w3.org/2000/svg">
  <path fill="#0000C0" d="M25.7,-45.2C34.1,-39.6,42.4,-34.4,46.6,-27C50.7,-19.5,50.6,-9.8,55.1,2.6C59.6,15,68.7,30,65.2,38.4C61.7,46.9,45.5,48.8,32.5,55.8C19.5,62.9,9.8,75,0.2,74.6C-9.3,74.2,-18.6,61.3,-33,55.1C-47.4,48.9,-66.9,49.4,-75.4,41.3C-84,33.2,-81.6,16.6,-77.1,2.6C-72.5,-11.4,-65.9,-22.8,-57.3,-30.7C-48.6,-38.6,-38,-43,-28.1,-47.9C-18.3,-52.7,-9.1,-58,-0.3,-57.5C8.6,-57,17.2,-50.8,25.7,-45.2Z" transform="translate(100 100)" />
</svg>
